<?xml version="1.0" standalone="no"?>
<!DOCTYPE svg PUBLIC "-//W3C//DTD SVG 20010904//EN"
 "http://www.w3.org/TR/2001/REC-SVG-20010904/DTD/svg10.dtd">
<svg version="1.0" xmlns="http://www.w3.org/2000/svg"
 width="1280.000000pt" height="992.000000pt" viewBox="0 0 1280.000000 992.000000"
 preserveAspectRatio="xMidYMid meet">
<metadata>
Created by potrace 1.15, written by Peter Selinger 2001-2017
</metadata>
<g transform="translate(0.000000,992.000000) scale(0.100000,-0.100000)"
fill="#000000" stroke="none">
<path d="M11606 9160 c-259 -55 -570 -209 -886 -437 -498 -360 -1067 -910
-1604 -1553 -360 -431 -725 -918 -1054 -1407 -53 -79 -98 -143 -102 -143 -3 0
-71 36 -150 81 -830 462 -1726 761 -2560 854 -714 79 -1303 14 -1730 -191
-290 -139 -506 -335 -624 -564 -92 -179 -120 -318 -113 -549 4 -144 9 -182 36
-286 70 -264 245 -541 470 -743 457 -409 1090 -701 1921 -886 217 -48 547
-107 718 -127 56 -7 102 -16 102 -20 0 -10 -351 -346 -475 -454 -753 -657
-1481 -1036 -2124 -1106 -126 -13 -440 -8 -581 11 -320 41 -595 137 -818 283
-232 152 -356 324 -378 523 -8 76 10 218 38 291 79 212 298 359 597 398 387
52 769 -26 1366 -278 l129 -55 51 15 c75 22 93 38 130 114 36 75 36 85 0 184
-14 38 -24 46 -138 107 -373 203 -794 338 -1227 393 -195 26 -526 31 -695 11
-595 -69 -990 -346 -1107 -778 -31 -113 -33 -345 -4 -458 71 -279 245 -499
564 -713 331 -222 768 -374 1258 -437 745 -96 1481 4 2239 303 207 82 586 268
790 387 482 283 990 674 1430 1101 l120 116 370 6 c378 7 507 14 700 43 128
19 148 28 199 84 36 40 37 43 31 98 -14 128 -15 130 -58 166 -71 57 -65 56
-313 46 -349 -14 -524 -18 -524 -11 0 3 46 62 101 131 200 246 473 614 683
917 l77 112 87 -55 c207 -134 617 -435 787 -580 l48 -40 -31 -140 c-72 -323
-97 -560 -89 -834 16 -546 175 -1004 480 -1385 77 -95 259 -273 377 -368 116
-93 310 -223 395 -263 208 -100 310 11 361 396 24 179 25 676 1 852 -79 589
-284 1081 -661 1585 -42 56 -76 106 -76 112 0 14 236 639 437 1156 218 561
550 1390 828 2065 375 912 579 1431 635 1619 42 137 12 253 -77 297 -56 28
-237 30 -357 4z m-751 -1058 c-150 -279 -374 -778 -550 -1222 -231 -584 -448
-1206 -784 -2247 l-26 -82 -120 91 c-66 49 -230 169 -365 264 -135 96 -257
185 -272 197 l-27 22 120 195 c364 589 531 852 794 1250 490 739 862 1228
1209 1588 49 51 91 91 93 88 2 -2 -30 -66 -72 -144z m-5415 -2012 c645 -85
1352 -340 2123 -766 95 -52 137 -80 133 -90 -3 -7 -76 -111 -162 -231 -464
-641 -792 -1055 -1044 -1316 l-95 -99 -70 7 c-489 45 -924 119 -1261 214 -663
188 -1156 473 -1412 816 -54 73 -134 236 -158 325 -26 93 -26 341 -1 424 47
153 143 292 276 398 237 189 546 297 966 337 155 15 525 5 705 -19z m4644
-2767 c138 -207 225 -423 263 -648 24 -149 24 -446 -1 -599 -15 -95 -67 -293
-83 -319 -7 -11 -54 34 -109 105 -98 127 -171 304 -205 498 -26 149 -36 440
-20 620 13 148 61 460 71 460 3 0 41 -53 84 -117z"/>
</g>
</svg>
