<?xml version="1.0" encoding="utf-8"?>
<!-- Generator: Adobe Illustrator 24.0.2, SVG Export Plug-In . SVG Version: 6.00 Build 0)  -->
<svg version="1.1" id="Layer_1" xmlns="http://www.w3.org/2000/svg" xmlns:xlink="http://www.w3.org/1999/xlink" x="0px" y="0px"
	 viewBox="0 0 512 512" style="enable-background:new 0 0 512 512;" xml:space="preserve">
<style type="text/css">
	.st0{fill:#C5E9F9;}
	.st1{fill:#5E889E;}
</style>
<circle class="st0" cx="256.3281" cy="255.9678" r="248.873"/>
<path class="st1" d="M413.4892,179.8643v54.4921c-2.0651,8.72-6.6407,16.7285-13.3995,23.2244
	c-9.507,9.1245-22.1777,14.1534-35.6591,14.1534h-84.7633v-16.59c0-7.0106-5.7372-12.7463-12.7478-12.7463h-21.6631
	c-7.0075,0-12.7431,5.7372-12.7431,12.7463v16.59h-84.768c-13.4813,0-26.1489-5.0289-35.6591-14.1534
	c-6.7651-6.4865-11.3328-14.5013-13.3979-23.2181v-54.4983c0-11.7468,9.6172-21.364,21.3655-21.364h272.073
	C403.8736,158.5003,413.4892,168.1175,413.4892,179.8643z M266.9211,301.0689c1.1223,0,2.0588-0.9381,2.0588-2.0588V282.417
	v-10.6828v-16.59c0-1.1207-0.9366-2.0651-2.0588-2.0651h-21.6646c-1.1175,0-2.0651,0.9444-2.0651,2.0651v16.59v10.6828v16.5932
	c0,1.1207,0.9476,2.0588,2.0651,2.0588H266.9211z M407.4923,265.2855c-11.5154,11.0448-26.799,17.1331-43.0616,17.1331h-84.7633
	v16.5931c0,7.0012-5.7372,12.7416-12.7478,12.7416h-21.6631c-7.0075,0-12.7431-5.7388-12.7431-12.7416v-16.5932h-84.768
	c-16.2595,0-31.5462-6.0883-43.06-17.133c-2.1879-2.1013-4.19-4.3317-5.997-6.6722v115.672
	c0,11.7562,9.6172,21.3655,21.3655,21.3655h272.073c11.7468,0,21.3624-9.6093,21.3624-21.3655v-115.672
	C411.6791,260.9539,409.6848,263.1842,407.4923,265.2855z M305.3488,122.029c-4.1743-4.1743-9.6439-6.2598-15.1089-6.2598h-68.2961
	c-5.4681,0-10.9409,2.0856-15.112,6.2598c-4.168,4.1711-6.2551,9.6392-6.2551,15.1057v10.6828h18.1561v-10.6828
	c0-0.606,0.1653-1.4922,0.9444-2.2666c0.7713-0.7744,1.6559-0.9428,2.2666-0.9428h68.2976c0.6013,0,1.489,0.1684,2.2618,0.9428
	c0.7776,0.7744,0.9428,1.6606,0.9428,2.2666v10.6828h18.1562v-10.6828C311.6008,131.6683,309.5168,126.2017,305.3488,122.029z"/>
</svg>
